<?xml version="1.0" encoding="UTF-8" standalone="no"?>
<svg
   width="10"
   height="10"
   fill="currentColor"
   class="bi bi-telephone-fill"
   viewBox="0 0 10 10"
   version="1.1"
   id="svg58"
   xmlns="http://www.w3.org/2000/svg"
   xmlns:svg="http://www.w3.org/2000/svg">
  <defs
     id="defs62" />
  <path
     fill-rule="evenodd"
     d="m 1.2873077,0.4526455 a 1.0595064,1.0595064 0 0 1 1.5847057,0.0989682 l 1.0898647,1.400127 C 4.1616361,2.2085723 4.2320674,2.5431214 4.1531358,2.858848 L 3.8210154,4.1885437 a 0.41165919,0.41165919 0 0 0 0.1080764,0.3904085 l 1.4918091,1.4918091 a 0.41165919,0.41165919 0 0 0 0.3910154,0.1080764 l 1.329088,-0.332121 a 1.0595064,1.0595064 0 0 1 0.9071078,0.1912575 l 1.400127,1.0892576 c 0.5033414,0.3916227 0.5494854,1.1354023 0.09897,1.5853129 L 8.9193977,9.3403553 C 8.4700937,9.7896588 7.7985673,9.9869883 7.1725783,9.7665866 A 11.313949,11.313949 0 0 1 2.9163367,7.0829085 11.313949,11.313949 0 0 1 0.23265878,2.8272755 C 0.01286428,2.2018935 0.21019357,1.5297596 0.65949712,1.0804561 Z"
     id="path56"
     style="fill:#3463b3;fill-opacity:1;stroke-width:0.607167" />
</svg>
