<svg xmlns="http://www.w3.org/2000/svg" width="10" height="10" fill="currentColor"><path fill-rule="evenodd" d="M1.287.453a1.06 1.06 0 0 1 1.585.099l1.09 1.4c.2.257.27.591.191.907l-.332 1.33a.412.412 0 0 0 .108.39l1.492 1.492a.412.412 0 0 0 .39.108l1.33-.332a1.06 1.06 0 0 1 .907.191l1.4 1.09a1.06 1.06 0 0 1 .1 1.585l-.629.627c-.449.45-1.12.647-1.746.427a11.314 11.314 0 0 1-4.257-2.684A11.314 11.314 0 0 1 .233 2.827C.013 2.202.21 1.53.659 1.08Z" style="fill:#3463b3;fill-opacity:1;stroke-width:.607167"/></svg>