<svg xmlns="http://www.w3.org/2000/svg" xml:space="preserve" width="436.48" height="54.846"><path d="m288 440.56-20.681 3.782V426.59H288z" style="fill:#ee7b06" transform="translate(-309.39 -460.6) scale(1.1583)"/><path d="m327.08 432.76-12.594 1.116v-14.754l14.299 2.052z" style="fill:#1b3f8f" transform="translate(-309.39 -460.6) scale(1.1583)"/><path d="m288.21 418-21.115 2.818 4.043-23.169h17.072z" style="fill:#e4095d" transform="translate(-309.39 -460.6) scale(1.1583)"/><path d="M310.31 439.86h-13.127l-3.798-42.218 14.075 2.988z" style="fill:#6f237e" transform="translate(-309.39 -460.6) scale(1.1583)"/><path d="M84.174 5.308h4.578q3.799 0 3.799 3.243 0 2.28-1.705 3.002 2.131.668 2.131 3.058 0 1.946-1.02 2.762-1 .815-2.927.815h-4.856zm4.726 6.82h-3.577v5.04h3.688q1.353 0 2.076-.574.723-.574.723-2.02 0-2.446-2.91-2.446zm-.185-5.801h-3.392v4.8h3.558q1.298 0 1.89-.612.612-.63.612-1.853 0-1.223-.667-1.779-.648-.556-2.001-.556zm12.805 10.935.556-.056.037.909q-2.094.259-3.54.259-2.001-.019-2.798-1.186-.797-1.168-.797-3.596 0-4.855 3.818-4.855 1.834 0 2.743 1.056.908 1.038.908 3.336l-.037.89h-6.302q0 1.705.575 2.539.593.815 2.001.815 1.428 0 2.836-.111zm-5.412-4.17h5.227q0-1.835-.612-2.613-.593-.779-1.927-.779-1.316 0-2.002.816-.686.797-.686 2.576zm8.622 5.096V8.921h1.093v1.335q.686-.482 1.669-.927 1-.445 1.834-.593v1.112q-.797.167-1.668.519-.87.334-1.353.593l-.481.278v6.95zm12.14-9.266h1.093v9.266h-1.093v-.685q-1.427.87-2.854.87-1.89 0-2.502-.963-.593-.964-.593-3.651V8.922h1.093v4.818q0 2.15.39 2.892.407.74 1.742.74.648 0 1.334-.184.686-.204 1.038-.408l.352-.186zm5.35.982v8.284h-1.112V9.904h-1.205v-.982h1.205v-.946q0-1.964.537-2.65.538-.704 1.91-.704l1.797.093v.945q-1.093-.037-1.63-.037-.872 0-1.187.482t-.315 1.89v.927h2.799v.982zm7.32-.148q-2.187 0-2.187 1.575 0 .723.482 1.02.482.296 2.168.592 1.705.278 2.391.779.704.5.704 1.927 0 1.409-.908 2.076-.908.649-2.668.649-1.02 0-2.632-.26l-.538-.074.074-.982q2.076.315 3.188.315t1.724-.39q.63-.389.63-1.315t-.52-1.223q-.5-.316-2.186-.575-1.668-.26-2.354-.741-.685-.482-.685-1.817 0-1.334.945-1.946.945-.611 2.335-.611 1.112 0 2.78.24l.5.075-.037.982q-1.983-.296-3.206-.296zm9.79-1.02q1.853 0 2.576 1.075.723 1.075.723 3.725 0 2.632-.927 3.744-.908 1.094-3.41 1.094-1.038 0-2.483-.149l-.482-.037V4.808h1.112v4.614q1.445-.686 2.891-.686zm-2.891 8.526q1.297.11 2.076.11.796 0 1.427-.222.63-.222.963-.74.352-.538.464-1.206.11-.685.11-1.797 0-1.965-.481-2.817-.463-.853-1.76-.853-.63 0-1.335.167-.704.148-1.094.315l-.37.148zm14.691 0 .556-.056.037.909q-2.094.259-3.54.259-2.001-.019-2.798-1.186-.797-1.168-.797-3.596 0-4.855 3.818-4.855 1.834 0 2.743 1.056.908 1.038.908 3.336l-.037.89h-6.302q0 1.705.575 2.539.593.815 2.001.815 1.428 0 2.836-.111zm-5.412-4.17h5.227q0-1.835-.612-2.613-.593-.779-1.927-.779-1.316 0-2.002.816-.686.797-.686 2.576zm16.132 6.505q0 1.575-1.02 2.28-1 .704-3.131.704t-2.947-.612q-.816-.611-.816-2.242 0-.779.334-1.26.334-.464 1.168-1.075-.464-.297-.464-1.26 0-.297.445-1.168l.148-.278q-1.52-.63-1.52-2.799 0-3.15 3.355-3.15.945 0 1.668.185l.278.055 2.687-.055v.982l-1.853-.037q.667.667.667 2.206 0 1.52-.852 2.224-.834.685-2.65.685-.538 0-.946-.074-.37.908-.37 1.15 0 .61.352.76.37.129 2.168.147 1.798 0 2.54.538.76.519.76 2.094zm-6.802.056q0 1.112.556 1.538.556.426 2.15.426 1.594 0 2.28-.463.685-.445.685-1.52 0-1.056-.5-1.371-.5-.315-1.909-.315l-2.094-.075q-.686.482-.927.834-.24.371-.24.946zm.13-7.766q0 1.186.519 1.687.519.482 1.742.482 1.242 0 1.76-.482t.52-1.687q0-1.223-.52-1.723-.518-.5-1.76-.5-1.223 0-1.742.518-.519.5-.519 1.705zm8.712 6.301V4.807h1.093v13.381zm10.11-.926.556-.056.037.909q-2.094.259-3.54.259-2.001-.019-2.798-1.186-.797-1.168-.797-3.596 0-4.855 3.818-4.855 1.834 0 2.743 1.056.908 1.038.908 3.336l-.037.89h-6.302q0 1.705.575 2.539.593.815 2.001.815 1.427 0 2.836-.111zm-5.412-4.17h5.227q0-1.835-.612-2.613-.593-.779-1.927-.779-1.316 0-2.002.816-.686.797-.686 2.576zm8.622 5.096V8.921h1.093v9.267zm0-11.583v-1.39h1.093v1.39zm8.56 3.299h-3.095v4.578q0 1.797.26 2.353.259.556 1.223.556l1.705-.13.074.946q-1.223.185-1.872.185-1.409 0-1.965-.686-.537-.704-.537-2.668V9.904h-1.371v-.982h1.371v-2.91h1.112v2.91h3.095zm7.88 7.358.556-.056.037.909q-2.094.259-3.54.259-2.001-.019-2.798-1.186-.797-1.168-.797-3.596 0-4.855 3.818-4.855 1.834 0 2.743 1.056.908 1.038.908 3.336l-.037.89h-6.302q0 1.705.575 2.539.593.815 2.001.815 1.427 0 2.836-.111zm-5.412-4.17h5.227q0-1.835-.612-2.613-.593-.779-1.927-.779-1.316 0-2.002.816-.686.797-.686 2.576zm9.712 5.096h-1.093V8.921h1.093v.686q1.557-.87 3.02-.87 1.854 0 2.466.981.63.983.63 3.596v4.874h-1.112v-4.819q0-2.131-.408-2.872-.408-.76-1.742-.76-.649 0-1.371.204-.705.185-1.094.389l-.39.185zm15.72-13.381v13.381h-1.112v-.685q-1.464.87-2.965.87-.686 0-1.186-.166-.5-.148-1.02-.612-1.056-.945-1.056-3.688 0-2.761.89-3.966t3.002-1.205q.815 0 2.335.241v-4.17zm-5.467 11.954q.352.352.685.482.353.13.89.13.556 0 1.26-.204.723-.204 1.13-.39l.39-.203V9.941q-1.483-.222-2.298-.222-1.575 0-2.187.963-.593.964-.593 2.984 0 2.372.723 3.095zm14.357.501.556-.056.037.909q-2.094.259-3.54.259-2.001-.019-2.798-1.186-.797-1.168-.797-3.596 0-4.855 3.818-4.855 1.834 0 2.743 1.056.908 1.038.908 3.336l-.037.89h-6.302q0 1.705.575 2.539.593.815 2.001.815 1.427 0 2.836-.111zm-5.412-4.17h5.227q0-1.835-.612-2.613-.593-.779-1.927-.779-1.316 0-2.002.816-.686.797-.686 2.576zm11.422-3.336q-2.187 0-2.187 1.575 0 .723.482 1.02.482.296 2.168.592 1.705.278 2.391.779.704.5.704 1.927 0 1.409-.908 2.076-.908.649-2.668.649-1.02 0-2.632-.26l-.538-.074.074-.982q2.076.315 3.188.315t1.724-.39q.63-.389.63-1.315t-.52-1.223q-.5-.316-2.186-.575-1.668-.26-2.354-.741-.685-.482-.685-1.817 0-1.334.945-1.946.945-.611 2.335-.611 1.112 0 2.78.24l.5.075-.037.982q-1.983-.296-3.206-.296zM83.479 28.937h1.751l3.503 17.792h.918l4.058-17.569h2.03l4.03 17.569h.918l3.503-17.792h1.751l-3.975 19.321h-3.447L94.71 31.3l-3.808 16.958h-3.448zM118.09 38.5v7.45q.111 1.029 1.807 1.223l-.083 1.335q-2.141 0-3.142-1.112-2.613 1.14-5.226 1.14-1.863 0-2.836-1.057-.973-1.084-.973-3.058 0-2.001.973-2.947 1.001-.972 3.114-1.195l4.726-.473V38.5q0-1.557-.695-2.224-.667-.695-1.807-.695-1.78 0-4.615.333l-.862.084-.083-1.335q3.058-.583 5.337-.583 2.308 0 3.336 1.084 1.029 1.084 1.029 3.336zm-8.73 5.81q0 2.808 2.308 2.808 1.001 0 2.196-.222 1.196-.25 1.89-.5l.696-.251v-5.032l-4.532.473q-1.362.111-1.973.778-.584.667-.584 1.946zm13.21 3.948V28.187h1.64v20.071zm16.37-20.072v20.071h-1.668v-1.029q-2.196 1.307-4.448 1.307-1.029 0-1.78-.25-.75-.223-1.528-.918-1.585-1.417-1.585-5.532 0-4.142 1.335-5.949t4.503-1.807q1.223 0 3.503.361v-6.255zm-8.2 17.931q.527.528 1.028.723.528.194 1.334.194.834 0 1.89-.305 1.085-.306 1.696-.584l.584-.306v-9.952q-2.224-.334-3.447-.334-2.363 0-3.28 1.446-.89 1.445-.89 4.476 0 3.558 1.084 4.642zm11.76-4.837q0-3.92 1.307-5.56 1.334-1.64 4.503-1.64 3.197 0 4.504 1.64 1.334 1.64 1.334 5.56t-1.223 5.588q-1.195 1.668-4.587 1.668-3.392 0-4.615-1.668T142.5 41.28zm1.724-.028q0 3.28.75 4.56.779 1.25 3.336 1.25 2.586 0 3.364-1.278.778-1.28.778-4.532 0-3.28-.89-4.476-.861-1.223-3.224-1.223-2.363 0-3.253 1.196-.861 1.195-.861 4.503zm13.506 7.006v-13.9h1.64v2.002q1.029-.723 2.502-1.39 1.501-.668 2.752-.89v1.668q-1.195.25-2.502.778-1.306.5-2.029.89l-.723.417v10.425zm11.65-12.427v12.427h-1.668V35.831h-1.807v-1.473h1.807V32.94q0-2.947.806-3.976.806-1.056 2.864-1.056l2.696.139v1.418q-1.64-.056-2.446-.056-1.307 0-1.78.723-.472.723-.472 2.836v1.39h4.198v1.473zm6.95 12.427V28.187h1.64v20.071zm15.18-1.39.834-.083.056 1.362q-3.142.389-5.31.389-3.003-.028-4.198-1.78-1.195-1.75-1.195-5.392 0-7.284 5.726-7.284 2.753 0 4.115 1.585 1.362 1.557 1.362 5.004l-.056 1.334h-9.452q0 2.558.862 3.809.89 1.223 3.003 1.223 2.14 0 4.253-.167zm-8.117-6.255h7.839q0-2.752-.917-3.92-.89-1.167-2.892-1.167-1.973 0-3.002 1.223-1.029 1.195-1.029 3.864zm14.567 7.645h-1.64V28.187h1.64v6.978q2.335-1.084 4.504-1.084 2.78 0 3.697 1.473.945 1.473.945 5.393v7.311h-1.668v-7.227q0-3.197-.611-4.31-.584-1.14-2.586-1.14-.973 0-2.057.251-1.056.222-1.64.473l-.584.222zm13.18 0v-13.9h1.64v2.002q1.029-.723 2.502-1.39 1.501-.668 2.752-.89v1.668q-1.195.25-2.502.778-1.306.5-2.029.89l-.723.417v10.425zm18.26-1.39.834-.083.056 1.362q-3.142.389-5.31.389-3.003-.028-4.198-1.78-1.195-1.75-1.195-5.392 0-7.284 5.726-7.284 2.753 0 4.115 1.585 1.362 1.557 1.362 5.004l-.056 1.334h-9.452q0 2.558.862 3.809.89 1.223 3.003 1.223 2.14 0 4.253-.167zm-8.117-6.255h7.839q0-2.752-.917-3.92-.89-1.167-2.892-1.167-1.973 0-3.002 1.223-1.029 1.195-1.029 3.864zm12.927 7.645v-13.9h1.64v2.002q1.029-.723 2.502-1.39 1.501-.668 2.752-.89v1.668q-1.195.25-2.502.778-1.306.5-2.029.89l-.723.417v10.425zm13.62-12.649q-3.28 0-3.28 2.363 0 1.084.722 1.529.723.445 3.253.89 2.558.417 3.586 1.167 1.057.75 1.057 2.891 0 2.113-1.363 3.114-1.362.973-4.003.973-1.529 0-3.947-.39l-.807-.11.112-1.474q3.113.473 4.781.473t2.586-.584q.945-.584.945-1.974t-.779-1.835q-.75-.472-3.28-.861-2.502-.39-3.53-1.112-1.03-.723-1.03-2.725 0-2.001 1.419-2.919 1.417-.917 3.502-.917 1.668 0 4.17.361l.751.111-.056 1.474q-2.974-.445-4.809-.445zm17.9 11.259.834-.083.056 1.362q-3.142.389-5.31.389-3.003-.028-4.198-1.78-1.195-1.75-1.195-5.392 0-7.284 5.726-7.284 2.753 0 4.115 1.585 1.362 1.557 1.362 5.004l-.056 1.334h-9.451q0 2.558.861 3.809.89 1.223 3.003 1.223 2.14 0 4.253-.167zm-8.117-6.255h7.839q0-2.752-.917-3.92-.89-1.167-2.892-1.167-1.973 0-3.002 1.223-1.029 1.195-1.029 3.864zm14.567 7.645h-1.64v-13.9h1.64v1.029q2.113-1.307 4.504-1.307t3.391 1.473q1.001-.611 2.419-1.028 1.445-.445 2.585-.445 2.78 0 3.698 1.473.945 1.446.945 5.394v7.31h-1.64V41.03q0-3.197-.612-4.309-.584-1.14-2.585-1.14-1.001 0-2.058.306-1.056.278-1.612.584l-.556.278q.417 1.056.417 4.281v7.228h-1.668v-7.172q0-3.253-.612-4.365-.583-1.14-2.557-1.14-.973 0-2.002.306-1 .278-1.529.584l-.528.278zm21.58 0v-13.9h1.64v13.9zm0-17.375v-2.085h1.64v2.085zm7.45 17.375h-1.64v-13.9h1.64v1.029q2.335-1.307 4.531-1.307 2.78 0 3.698 1.473.945 1.474.945 5.394v7.31h-1.668V41.03q0-3.197-.612-4.309-.611-1.14-2.613-1.14-.973 0-2.057.306-1.056.278-1.64.584l-.584.278zm22.74-9.758v7.45q.111 1.029 1.807 1.223l-.083 1.335q-2.141 0-3.142-1.112-2.613 1.14-5.226 1.14-1.863 0-2.836-1.057-.973-1.084-.973-3.058 0-2.001.973-2.947 1.001-.972 3.114-1.195l4.726-.473V38.5q0-1.557-.695-2.224-.667-.695-1.807-.695-1.78 0-4.615.333l-.862.084-.083-1.335q3.058-.583 5.337-.583 2.308 0 3.336 1.084 1.029 1.084 1.029 3.336zm-8.73 5.81q0 2.808 2.308 2.808 1.001 0 2.196-.222 1.196-.25 1.89-.5l.696-.251v-5.032l-4.532.473q-1.362.111-1.973.778-.584.667-.584 1.946zm13.04 3.948v-13.9h1.64v2.002q1.029-.723 2.502-1.39 1.501-.668 2.752-.89v1.668q-1.195.25-2.502.778-1.306.5-2.029.89l-.723.417v10.425zm15.87 0V28.937h11.398v1.557h-9.674v7.978h8.228v1.53h-8.228v8.256zm13.65 0v-13.9h1.64v2.002q1.029-.723 2.502-1.39 1.501-.668 2.752-.89v1.668q-1.195.25-2.502.778-1.306.5-2.029.89l-.723.417v10.425zm18.26-1.39.834-.083.056 1.362q-3.142.389-5.31.389-3.003-.028-4.198-1.78-1.195-1.75-1.195-5.392 0-7.284 5.726-7.284 2.753 0 4.115 1.585 1.362 1.557 1.362 5.004l-.056 1.334h-9.451q0 2.558.861 3.809.89 1.223 3.003 1.223 2.14 0 4.253-.167zm-8.117-6.255h7.84q0-2.752-.918-3.92-.89-1.167-2.891-1.167-1.974 0-3.003 1.223-1.029 1.195-1.029 3.864zm12.927 7.645v-13.9h1.64v13.9zm0-17.375v-2.085h1.64v2.085zm11.79 3.197q2.78 0 3.864 1.612 1.084 1.613 1.084 5.588 0 3.948-1.39 5.616-1.362 1.64-5.115 1.64-1.557 0-3.725-.222l-.723-.056V28.187h1.668v6.922q2.169-1.028 4.337-1.028zm-4.337 12.788q1.946.167 3.114.167 1.195 0 2.14-.334t1.446-1.112q.528-.806.695-1.807.167-1.028.167-2.696 0-2.947-.723-4.226-.695-1.279-2.641-1.279-.945 0-2.002.25-1.056.223-1.64.473l-.556.222zm21.627-12.51h1.64v13.9h-1.64v-1.029q-2.14 1.307-4.281 1.307-2.836 0-3.753-1.446-.89-1.445-.89-5.476v-7.256h1.64v7.228q0 3.225.584 4.337.612 1.112 2.613 1.112.973 0 2.002-.278 1.029-.306 1.557-.612l.528-.278zm5.81 13.9v-13.9h1.64v2.002q1.029-.723 2.502-1.39 1.501-.668 2.752-.89v1.668q-1.195.25-2.502.778-1.306.5-2.029.89l-.723.417v10.425zm20.46 2.112q0 2.363-1.529 3.42-1.501 1.056-4.698 1.056-3.197 0-4.42-.918-1.224-.917-1.224-3.363 0-1.168.5-1.89.501-.696 1.752-1.613-.695-.445-.695-1.89 0-.445.667-1.752l.223-.417q-2.28-.945-2.28-4.198 0-4.726 5.032-4.726 1.418 0 2.502.278l.417.084 4.031-.084v1.474l-2.78-.056q1 1 1 3.308 0 2.28-1.278 3.336-1.251 1.029-3.975 1.029-.807 0-1.418-.111-.556 1.362-.556 1.723 0 .918.528 1.14.556.195 3.253.222 2.696 0 3.808.807 1.14.778 1.14 3.141zm-10.203.083q0 1.668.834 2.308.834.64 3.225.64 2.39 0 3.42-.696 1.028-.667 1.028-2.28 0-1.584-.75-2.057-.751-.472-2.864-.472l-3.142-.111q-1.028.722-1.39 1.25-.361.557-.361 1.418zm.195-11.648q0 1.78.778 2.53.778.723 2.613.723 1.863 0 2.641-.723.779-.723.779-2.53 0-1.834-.779-2.585t-2.64-.75q-1.836 0-2.614.778-.778.75-.778 2.557z" aria-label="Berufsbegleitendes Waldorflehrerseminar Freiburg" style="fill:#333"/></svg>